<svg class="svg-icon" style="width: 1em; height: 1em;vertical-align: middle;fill: currentColor;overflow: hidden;" viewBox="0 0 1024 1024" version="1.1" xmlns="http://www.w3.org/2000/svg"><path d="M768 256H640a128 128 0 0 0-256 0H256a64.19 64.19 0 0 0-64 64v512a64.19 64.19 0 0 0 64 64h512a64.19 64.19 0 0 0 64-64V320a64.19 64.19 0 0 0-64-64z m-256-64a64 64 0 1 1-64 64 64 64 0 0 1 64-64zM256 512h416v64H256z m285.73 320l-22.63-22.63-22.63-22.63-90.47-90.5L451.22 651l90.51 90.51 181-181L768 605.73zM768 448H256v-64h512z"  /></svg>