<?xml version="1.0" encoding="utf-8"?>
<!-- Svg Vector Icons : http://www.onlinewebfonts.com/icon -->
<!DOCTYPE svg PUBLIC "-//W3C//DTD SVG 1.1//EN" "http://www.w3.org/Graphics/SVG/1.1/DTD/svg11.dtd">
<svg version="1.1" xmlns="http://www.w3.org/2000/svg" xmlns:xlink="http://www.w3.org/1999/xlink" x="0px" y="0px" viewBox="0 0 1000 1000" enable-background="new 0 0 1000 1000"
    xml:space="preserve" xmlns:xsi="http://www.w3.org/2001/XMLSchema-instance"
    xsi:schemaLocation="http://www.w3.org/2000/svg ">
<metadata> Svg Vector Icons : http://www.onlinewebfonts.com/icon </metadata>
    <g><g transform="translate(0.000000,511.000000) scale(0.100000,-0.100000)"><path d="M6171.2,4982.9c-419.7-113.2-683.3-521.2-611.1-942.9c95.7-556.4,673.5-853.1,1188.9-613c169.8,80,287,193.3,369,361.2c165.9,335.8,119.1,696.9-125,954.6C6780.3,4967.3,6458.2,5061,6171.2,4982.9z"/><path
        d="M3945.7,3848.6c-269.4-62.5-515.4-138.6-628.6-197.2c-134.7-68.3-214.7-146.4-429.5-413.9c-595.4-747.7-880.4-1366.6-882.4-1917.1c0-249.9,25.4-367,99.6-466.6c66.4-85.9,246-201.1,421.7-267.5c78.1-29.3,144.5-56.6,148.4-60.5c13.7-9.8-156.2-345.5-244-476.3c-48.8-74.2-123-164-167.9-201.1l-78.1-68.3l99.6-48.8c54.7-27.3,103.5-50.8,109.3-50.8c33.2,0,400.2,636.4,445.1,771.1c3.9,9.8,52.7,7.8,121-9.8l113.2-27.3L3059.4,239c-11.7-195.2-46.8-343.6-105.4-462.7l-39-76.1l44.9-11.7c23.4-5.8,76.1-7.8,119.1-3.9l76.1,5.9l23.4,126.9c11.7,70.3,33.2,220.6,44.9,335.8c17.6,156.2,31.2,210.8,52.7,214.8c19.5,3.9,56.6,93.7,105.4,265.5c195.2,667.7,542.7,1403.7,942.9,1995.2c173.8,255.7,410,556.4,574,728.2c70.3,72.2,123,134.7,119.1,138.6c-7.8,7.8-816,382.6-847.3,392.4C4160.4,3891.6,4058.9,3874,3945.7,3848.6z" /><path
        d="M5220.5,3350.8c-169.8-87.9-372.9-333.8-605.2-741.9c-111.3-193.3-445.1-823.8-689.1-1300.2c-197.2-382.6-285-714.5-269.4-999.5c19.5-310.4,7.8-292.8,773.1-1067.9c765.3-773.1,1030.8-1058.1,1067.9-1147.9c52.7-128.9,189.4-829.7,378.7-1940.5c64.4-378.7,128.9-710.6,144.5-741.8c62.5-117.1,203-201.1,339.7-201.1c162,1.9,341.6,144.5,370.9,292.8c13.7,76.1-23.4,654-113.2,1718c-74.2,911.7-105.4,1153.8-158.1,1255.3c-95.7,191.3-509.5,790.7-987.8,1438.8c-123,166-224.5,310.4-226.5,322.1c-2,9.8,124.9,273.3,279.2,583.7l281.1,562.2l39.1-64.4c21.5-37.1,121-189.4,220.6-339.7c199.1-300.6,333.8-464.6,417.8-507.6c44.9-23.4,706.7-218.7,1294.3-380.7c181.6-48.8,279.2-41,369,35.1c109.3,93.7,144.5,253.8,82,386.6c-41,87.9-93.7,123-329.9,222.5c-521.2,220.6-999.5,439.3-1040.5,476.3c-115.2,101.5-304.6,544.7-521.3,1204.5c-70.3,218.7-150.3,435.3-177.6,480.3c-58.6,103.5-187.4,201.1-466.6,359.2C5441.1,3397.7,5349.3,3417.2,5220.5,3350.8z" /><path
        d="M3750.5-504.9c0-97.6-306.5-1423.2-390.4-1694.5c-58.6-185.5-58.6-185.5-288.9-435.4c-128.9-138.6-462.7-470.5-745.8-739.9c-294.8-281.1-527.1-519.3-548.6-560.3c-80-158.1-23.4-382.6,123-480.2c95.6-62.5,267.4-80.1,367-37.1c99.6,41,1557.9,1300.2,1819.5,1569.6c124.9,128.8,257.7,433.4,525.1,1206.5l93.7,273.3L4262-957.8C3805.1-497.1,3750.5-450.2,3750.5-504.9z" /></g></g>
</svg>